<svg width="368" height="90" viewBox="0 0 368 90" fill="none" xmlns="http://www.w3.org/2000/svg">
<path d="M59.8084 0.192005H72.5764V59.232H59.8084V0.192005ZM35.9044 54.912H46.6564V56.544C46.6564 60.576 45.8884 64.352 44.3524 67.872C42.8804 71.392 40.7044 74.56 37.8244 77.376C35.0084 80.192 31.4884 82.56 27.2644 84.48C23.0404 86.464 18.2084 87.872 12.7684 88.704L7.96841 78.816C12.7044 78.112 16.8004 77.024 20.2564 75.552C23.7764 74.08 26.6884 72.352 28.9924 70.368C31.2964 68.32 33.0244 66.112 34.1764 63.744C35.3284 61.376 35.9044 58.976 35.9044 56.544V54.912ZM38.2084 54.912H49.0564V56.544C49.0564 58.976 49.6324 61.376 50.7844 63.744C51.9364 66.112 53.6324 68.32 55.8724 70.368C58.1764 72.352 61.0564 74.08 64.5124 75.552C68.0324 77.024 72.1604 78.112 76.8964 78.816L72.0964 88.704C66.6564 87.872 61.8244 86.464 57.6004 84.48C53.3764 82.56 49.8244 80.192 46.9444 77.376C44.1284 74.56 41.9524 71.392 40.4164 67.872C38.9444 64.288 38.2084 60.512 38.2084 56.544V54.912ZM24.1924 5.568C28.8004 5.568 32.9284 6.496 36.5764 8.352C40.2244 10.208 43.1044 12.768 45.2164 16.032C47.3284 19.296 48.3844 23.072 48.3844 27.36C48.3844 31.584 47.3284 35.328 45.2164 38.592C43.1044 41.856 40.2244 44.448 36.5764 46.368C32.9284 48.224 28.8004 49.152 24.1924 49.152C19.6484 49.152 15.5204 48.224 11.8084 46.368C8.16041 44.448 5.28041 41.856 3.16841 38.592C1.05641 35.328 0.000406384 31.584 0.000406384 27.36C0.000406384 23.072 1.05641 19.296 3.16841 16.032C5.28041 12.768 8.16041 10.208 11.8084 8.352C15.5204 6.496 19.6484 5.568 24.1924 5.568ZM24.1924 16.32C22.0164 16.32 20.0324 16.768 18.2404 17.664C16.4484 18.496 15.0404 19.744 14.0164 21.408C12.9924 23.008 12.4804 24.992 12.4804 27.36C12.4804 29.664 12.9924 31.648 14.0164 33.312C15.0404 34.912 16.4484 36.16 18.2404 37.056C20.0324 37.952 22.0164 38.4 24.1924 38.4C26.4324 38.4 28.4164 37.952 30.1444 37.056C31.9364 36.16 33.3444 34.912 34.3684 33.312C35.3924 31.648 35.9044 29.664 35.9044 27.36C35.9044 24.992 35.3924 23.008 34.3684 21.408C33.3444 19.744 31.9364 18.496 30.1444 17.664C28.4164 16.768 26.4324 16.32 24.1924 16.32ZM143.801 1.90735e-06H156.665V89.184H143.801V1.90735e-06ZM153.881 32.928H169.529V43.488H153.881V32.928ZM90.4249 57.312H97.9129C102.969 57.312 107.705 57.248 112.121 57.12C116.537 56.928 120.825 56.64 124.985 56.256C129.145 55.808 133.401 55.2 137.753 54.432L139.001 64.992C134.521 65.76 130.105 66.368 125.753 66.816C121.465 67.264 117.049 67.552 112.505 67.68C107.961 67.808 103.097 67.872 97.9129 67.872H90.4249V57.312ZM90.4249 8.256H131.897V18.528H103.193V62.304H90.4249V8.256ZM214.788 10.7258V80.544H202.14V10.7258H214.788ZM283.277 81.4645C279.163 81.4645 275.481 80.4076 272.231 78.294C268.981 76.1804 266.413 73.1122 264.527 69.0895C262.64 65.0667 261.697 60.1804 261.697 54.4304C261.697 48.6122 262.652 43.7031 264.561 39.7031C266.493 35.6804 269.095 32.6463 272.368 30.6008C275.64 28.5326 279.288 27.4986 283.311 27.4986C286.379 27.4986 288.902 28.0213 290.879 29.0667C292.856 30.0895 294.424 31.3281 295.583 32.7826C296.743 34.2145 297.64 35.5667 298.277 36.8395H298.788V10.7258H311.163V80.544H299.027V72.294H298.277C297.64 73.5667 296.72 74.919 295.515 76.3508C294.311 77.7599 292.72 78.9645 290.743 79.9645C288.765 80.9645 286.277 81.4645 283.277 81.4645ZM286.72 71.3395C289.333 71.3395 291.561 70.6349 293.402 69.2258C295.243 67.794 296.64 65.8054 297.595 63.2599C298.549 60.7145 299.027 57.7486 299.027 54.3622C299.027 50.9758 298.549 48.0326 297.595 45.5326C296.663 43.0326 295.277 41.0895 293.436 39.7031C291.618 38.3167 289.379 37.6235 286.72 37.6235C283.97 37.6235 281.674 38.3395 279.833 39.7713C277.993 41.2031 276.606 43.1804 275.674 45.7031C274.743 48.2258 274.277 51.1122 274.277 54.3622C274.277 57.6349 274.743 60.5554 275.674 63.1236C276.629 65.669 278.027 67.6804 279.868 69.1576C281.731 70.6122 284.015 71.3395 286.72 71.3395ZM339.382 81.6008C336.064 81.6008 333.075 81.0099 330.416 79.8281C327.779 78.6236 325.689 76.8508 324.143 74.5099C322.62 72.169 321.859 69.2826 321.859 65.8508C321.859 62.8963 322.404 60.4531 323.495 58.5213C324.586 56.5895 326.075 55.044 327.961 53.8849C329.848 52.7258 331.973 51.8508 334.336 51.2599C336.723 50.6463 339.189 50.2031 341.734 49.9304C344.802 49.6122 347.291 49.3281 349.2 49.0781C351.109 48.8054 352.495 48.3963 353.359 47.8508C354.245 47.2826 354.689 46.4076 354.689 45.2258V45.0213C354.689 42.4531 353.927 40.4645 352.404 39.0554C350.882 37.6463 348.689 36.9417 345.825 36.9417C342.802 36.9417 340.404 37.6008 338.632 38.919C336.882 40.2372 335.7 41.794 335.086 43.5895L323.564 41.9531C324.473 38.7713 325.973 36.1122 328.064 33.9758C330.154 31.8167 332.711 30.2031 335.734 29.1349C338.757 28.044 342.098 27.4986 345.757 27.4986C348.279 27.4986 350.791 27.794 353.291 28.3849C355.791 28.9758 358.075 29.9531 360.143 31.3167C362.211 32.6576 363.87 34.4872 365.12 36.8054C366.393 39.1236 367.029 42.0213 367.029 45.4985V80.544H355.166V73.3508H354.757C354.007 74.8054 352.95 76.169 351.586 77.4417C350.245 78.6917 348.552 79.7031 346.507 80.4758C344.484 81.2258 342.109 81.6008 339.382 81.6008ZM342.586 72.5326C345.064 72.5326 347.211 72.044 349.029 71.0667C350.848 70.0667 352.245 68.7486 353.223 67.1122C354.223 65.4758 354.723 63.6917 354.723 61.7599V55.5895C354.336 55.9076 353.677 56.2031 352.745 56.4758C351.836 56.7486 350.814 56.9872 349.677 57.1917C348.541 57.3963 347.416 57.5781 346.302 57.7372C345.189 57.8963 344.223 58.0326 343.404 58.1463C341.564 58.3963 339.916 58.8054 338.461 59.3736C337.007 59.9417 335.859 60.7372 335.018 61.7599C334.177 62.7599 333.757 64.0554 333.757 65.6463C333.757 67.919 334.586 69.6349 336.245 70.794C337.904 71.9531 340.018 72.5326 342.586 72.5326Z" fill="black"/>
<path d="M254.086 28.1804V37.7258H223.984V28.1804H254.086ZM231.416 15.6349H243.757V64.794C243.757 66.4531 244.007 67.7258 244.507 68.6122C245.029 69.4758 245.711 70.0667 246.552 70.3849C247.393 70.7031 248.325 70.8622 249.348 70.8622C250.12 70.8622 250.825 70.8054 251.461 70.6917C252.12 70.5781 252.62 70.4758 252.961 70.3849L255.041 80.0326C254.382 80.2599 253.439 80.5099 252.211 80.7826C251.007 81.0554 249.529 81.2145 247.779 81.2599C244.689 81.3508 241.904 80.8849 239.427 79.8622C236.95 78.8167 234.984 77.2031 233.529 75.0213C232.098 72.8395 231.393 70.1122 231.416 66.8395V15.6349Z" fill="#4DB190"/>
</svg>
